<svg width="376" height="375" viewBox="0 0 376 375" fill="none" xmlns="http://www.w3.org/2000/svg">
<path d="M188 -0.000244141C229.614 -0.000243644 270.045 13.8432 302.925 39.3496C335.805 64.856 359.266 100.576 369.613 140.883C379.959 181.19 376.602 223.793 360.071 261.983C343.541 300.172 314.775 331.777 278.306 351.82L235.44 273.821C254.598 263.292 269.71 246.689 278.394 226.628C287.078 206.566 288.841 184.185 283.406 163.011C277.971 141.836 265.646 123.072 248.373 109.673C231.1 96.2734 209.861 89.0011 188 89.0011V-0.000244141Z" fill="#BAC8EC"/>
<mask id="mask0_1210_4847" style="mask-type:luminance" maskUnits="userSpaceOnUse" x="158" y="157" width="60" height="61">
<path d="M217.493 157.554H158.507V217.445H217.493V157.554Z" fill="white"/>
</mask>
<g mask="url(#mask0_1210_4847)">
<path d="M191.01 167.812L193.285 165.537C197.752 161.069 205.026 160.958 209.519 165.4C211.222 167.087 212.354 169.265 212.755 171.628C213.156 173.991 212.807 176.42 211.757 178.575C211.253 179.604 211.084 180.764 211.271 181.895C211.46 183.025 211.996 184.068 212.806 184.879C214.295 183.387 215.475 181.615 216.279 179.667C217.083 177.718 217.496 175.63 217.493 173.522C217.489 171.414 217.071 169.327 216.262 167.38C215.452 165.434 214.266 163.666 212.773 162.178C206.49 155.93 196.291 156.054 190.026 162.32L168.34 184.005L166.557 182.222C162.014 177.678 161.985 170.252 166.608 165.789C168.32 164.142 170.5 163.067 172.849 162.712C175.197 162.357 177.598 162.74 179.72 163.808C180.688 164.304 181.788 164.482 182.864 164.315C183.939 164.149 184.934 163.646 185.707 162.881L185.762 162.826C185.78 162.808 185.793 162.788 185.803 162.766C185.812 162.743 185.817 162.719 185.817 162.695C185.817 162.671 185.812 162.647 185.803 162.624C185.793 162.602 185.78 162.582 185.762 162.565C182.778 159.655 178.778 158.02 174.61 158.007C170.441 157.994 166.431 159.603 163.428 162.494C156.959 168.739 156.982 179.123 163.34 185.481L185.02 207.161L182.717 209.463C178.249 213.931 170.975 214.042 166.482 209.6C164.779 207.913 163.648 205.735 163.247 203.372C162.845 201.009 163.194 198.58 164.244 196.425C164.748 195.396 164.918 194.235 164.73 193.105C164.542 191.975 164.006 190.932 163.196 190.121C161.707 191.613 160.527 193.384 159.722 195.333C158.918 197.282 158.506 199.37 158.509 201.478C158.512 203.586 158.93 205.673 159.74 207.62C160.55 209.566 161.735 211.334 163.228 212.822C169.511 219.07 179.71 218.946 185.976 212.681L207.69 190.967L209.479 192.756C213.947 197.224 214.057 204.497 209.615 208.99C207.929 210.693 205.751 211.825 203.388 212.226C201.025 212.628 198.596 212.279 196.441 211.228C195.412 210.724 194.25 210.554 193.119 210.743C191.989 210.931 190.945 211.468 190.134 212.278C191.627 213.767 193.398 214.947 195.347 215.752C197.296 216.556 199.383 216.968 201.492 216.965C203.6 216.962 205.687 216.544 207.633 215.734C209.58 214.924 211.347 213.739 212.836 212.246C219.084 205.963 218.959 195.764 212.694 189.498L191.01 167.812ZM188.257 203.922L171.578 187.243L187.771 171.05L204.45 187.729L188.257 203.922Z" fill="white"/>
</g>
<path d="M278.322 351.811C245.824 369.675 208.759 377.501 171.813 374.3C134.868 371.098 99.7013 357.013 70.7608 333.825C41.8203 310.638 20.4057 279.389 9.22493 244.031C-1.95579 208.672 -2.40046 170.792 7.94716 135.181L93.4135 160.015C87.9776 178.723 88.2112 198.622 94.0848 217.197C99.9583 235.772 111.208 252.187 126.411 264.368C141.614 276.55 160.088 283.949 179.497 285.631C198.905 287.312 218.377 283.201 235.448 273.817L278.322 351.811Z" fill="#AC94F1"/>
<path d="M7.83821 135.558C17.7778 101.082 37.4003 70.1825 64.3768 46.5262L123.057 113.443C108.886 125.87 98.5778 142.102 93.3563 160.213L7.83821 135.558Z" fill="#FFF0CA"/>
<path d="M63.4118 47.3783C89.173 24.4728 120.75 9.1125 154.673 2.98536L170.492 90.5695C152.672 93.7882 136.084 101.857 122.551 113.89L63.4118 47.3783Z" fill="#F9CF64"/>
<path d="M153.759 3.15283C166.451 0.795331 179.353 -0.245089 192.259 0.0481286L190.237 89.0265C183.457 88.8725 176.68 89.419 170.012 90.6575L153.759 3.15283Z" fill="#F38FBF"/>
</svg>
