<svg width="125" height="26" viewBox="0 0 125 26" fill="none" xmlns="http://www.w3.org/2000/svg">
<g opacity="0.6">
<path d="M40.5897 20.543C39.9654 20.5766 39.348 20.4007 38.837 20.0438C38.6235 19.887 38.4517 19.681 38.3365 19.4436C38.2213 19.2062 38.1662 18.9446 38.1759 18.6814V9.04064C38.1708 8.99982 38.1751 8.95839 38.1886 8.91949C38.2021 8.8806 38.2244 8.84526 38.2537 8.81618C38.2831 8.7871 38.3187 8.76503 38.358 8.75167C38.3972 8.7383 38.439 8.73398 38.4802 8.73904H40.2433C40.4427 8.73904 40.5372 8.84304 40.5372 9.04064V17.9326C40.5372 18.3278 40.7156 18.5254 41.0829 18.5254C41.2386 18.5318 41.3944 18.5143 41.5447 18.4734C41.7546 18.4734 41.87 18.5358 41.8805 18.723L42.0379 20.023C42.0455 20.0609 42.0448 20.1 42.0358 20.1376C42.0269 20.1752 42.0099 20.2105 41.986 20.241C41.9621 20.2716 41.9319 20.2967 41.8974 20.3147C41.863 20.3327 41.825 20.3432 41.786 20.3454C41.3999 20.4718 40.9963 20.5385 40.5897 20.543Z" fill="#1D2130"/>
<path d="M50.5072 19.4303C49.6212 20.1557 48.5079 20.5525 47.3587 20.5525C46.2095 20.5525 45.0963 20.1557 44.2103 19.4303C43.4317 18.6513 42.9948 17.5992 42.9948 16.5027C42.9948 15.4062 43.4317 14.3541 44.2103 13.5751C45.098 12.8535 46.2106 12.4591 47.3587 12.4591C48.5069 12.4591 49.6195 12.8535 50.5072 13.5751C51.2679 14.3613 51.6926 15.4083 51.6926 16.4975C51.6926 17.5867 51.2679 18.6337 50.5072 19.4199V19.4303ZM45.8685 18.0575C46.2796 18.4266 46.8145 18.6309 47.3692 18.6309C47.924 18.6309 48.4589 18.4266 48.87 18.0575C49.2421 17.6335 49.447 17.0906 49.447 16.5287C49.447 15.9668 49.2421 15.4239 48.87 14.9999C48.4589 14.6308 47.924 14.4264 47.3692 14.4264C46.8145 14.4264 46.2796 14.6308 45.8685 14.9999C45.4964 15.4239 45.2915 15.9668 45.2915 16.5287C45.2915 17.0906 45.4964 17.6335 45.8685 18.0575Z" fill="#1D2130"/>
<path d="M61.4007 12.7222C61.6001 12.7222 61.6945 12.8262 61.6945 13.0238V20.4806C61.7128 20.9839 61.6178 21.4849 61.4163 21.9473C61.2148 22.4096 60.9119 22.8216 60.5296 23.1534C59.681 23.8705 58.5897 24.2421 57.4756 24.1934C56.4693 24.2285 55.4765 23.9562 54.6316 23.4134C54.2708 23.1786 53.9625 22.8728 53.726 22.515C53.4895 22.1572 53.3298 21.755 53.2568 21.3334C53.2568 21.1254 53.2568 21.0318 53.5401 21.0318H55.3032C55.3781 21.0344 55.4506 21.0583 55.5121 21.1007C55.5735 21.1432 55.6213 21.2023 55.6496 21.271C55.7639 21.5869 55.9919 21.8498 56.2897 22.0094C56.6527 22.195 57.0567 22.288 57.4651 22.2798C57.7116 22.2932 57.9582 22.2578 58.1906 22.1757C58.4231 22.0935 58.6367 21.9663 58.819 21.8014C58.9855 21.629 59.115 21.4249 59.1998 21.2014C59.2846 20.978 59.3228 20.7399 59.3122 20.5014V19.8462C58.6809 20.3064 57.9126 20.5443 57.1293 20.5222C56.5811 20.542 56.0345 20.4518 55.5223 20.257C55.0101 20.0622 54.5429 19.7668 54.1488 19.3886C53.3922 18.6129 52.9692 17.5763 52.9692 16.4974C52.9692 15.4186 53.3922 14.3819 54.1488 13.6062C54.5448 13.2314 55.0126 12.9389 55.5245 12.746C56.0363 12.5531 56.582 12.4637 57.1293 12.483C57.9353 12.4619 58.7243 12.7152 59.3647 13.2006V13.0342C59.3599 12.9944 59.3641 12.954 59.377 12.9159C59.3899 12.8779 59.4112 12.8431 59.4393 12.8143C59.4675 12.7854 59.5017 12.7631 59.5396 12.749C59.5776 12.7348 59.6182 12.7293 59.6585 12.7326L61.4007 12.7222ZM57.3287 18.671C57.5991 18.6793 57.868 18.6287 58.1164 18.5226C58.3649 18.4166 58.5868 18.2578 58.7665 18.0574C59.1154 17.6109 59.3047 17.0622 59.3047 16.4974C59.3047 15.9327 59.1154 15.384 58.7665 14.9374C58.5874 14.7398 58.3669 14.5833 58.1203 14.4791C57.8737 14.3749 57.6071 14.3255 57.3392 14.3342C57.0657 14.3257 56.7936 14.3762 56.5418 14.4821C56.2899 14.5881 56.0642 14.747 55.8804 14.9478C55.4939 15.375 55.2906 15.9346 55.3137 16.5078C55.2948 17.0755 55.4935 17.6292 55.8699 18.0574C56.0542 18.2578 56.2799 18.4163 56.5317 18.5222C56.7834 18.6281 57.0553 18.6789 57.3287 18.671Z" fill="#1D2130"/>
<path d="M70.7514 19.4302C69.8638 20.1519 68.7511 20.5463 67.603 20.5463C66.4549 20.5463 65.3422 20.1519 64.4546 19.4302C63.6932 18.6423 63.2682 17.5936 63.2682 16.5026C63.2682 15.4117 63.6932 14.3629 64.4546 13.575C65.3431 12.8553 66.4554 12.4621 67.603 12.4621C68.7506 12.4621 69.8629 12.8553 70.7514 13.575C71.5121 14.3612 71.9369 15.4083 71.9369 16.4974C71.9369 17.5866 71.5121 18.6337 70.7514 19.4198V19.4302ZM66.1023 18.0574C66.3035 18.2471 66.5406 18.3953 66.8 18.4935C67.0594 18.5917 67.3359 18.6379 67.6135 18.6294C67.8893 18.6365 68.1638 18.5896 68.4213 18.4915C68.6788 18.3933 68.9143 18.2458 69.1142 18.0574C69.4803 17.6306 69.6812 17.0888 69.6812 16.5286C69.6812 15.9685 69.4803 15.4267 69.1142 14.9998C68.9143 14.8114 68.6788 14.6639 68.4213 14.5658C68.1638 14.4676 67.8893 14.4208 67.6135 14.4278C67.3359 14.4194 67.0594 14.4656 66.8 14.5638C66.5406 14.662 66.3035 14.8102 66.1023 14.9998C65.7362 15.4267 65.5353 15.9685 65.5353 16.5286C65.5353 17.0888 65.7362 17.6306 66.1023 18.0574Z" fill="#1D2130"/>
<path d="M75.726 10.9543C75.4485 11.1949 75.0924 11.3275 74.7237 11.3275C74.355 11.3275 73.9989 11.1949 73.7215 10.9543C73.5957 10.8366 73.4955 10.6948 73.427 10.5374C73.3585 10.38 73.3232 10.2105 73.3232 10.0391C73.3232 9.86769 73.3585 9.69811 73.427 9.54074C73.4955 9.38336 73.5957 9.24151 73.7215 9.12388C74.0018 8.88927 74.3568 8.76056 74.7237 8.76056C75.0906 8.76056 75.4457 8.88927 75.726 9.12388C75.8517 9.24151 75.9519 9.38336 76.0204 9.54074C76.0889 9.69811 76.1243 9.86769 76.1243 10.0391C76.1243 10.2105 76.0889 10.38 76.0204 10.5374C75.9519 10.6948 75.8517 10.8366 75.726 10.9543ZM75.9463 20.5431C75.3225 20.5734 74.7061 20.3978 74.1937 20.0439C73.9835 19.8847 73.8147 19.678 73.7015 19.441C73.5883 19.204 73.534 18.9435 73.5431 18.6815V13.0239C73.538 12.9831 73.5423 12.9416 73.5558 12.9027C73.5693 12.8638 73.5916 12.8285 73.6209 12.7994C73.6503 12.7703 73.6859 12.7483 73.7252 12.7349C73.7644 12.7215 73.8062 12.7172 73.8474 12.7223H75.6105C75.8099 12.7223 75.9044 12.8263 75.9044 13.0239V17.9327C75.9044 18.3279 76.0828 18.5255 76.4396 18.5255C76.5987 18.5311 76.7579 18.5136 76.9119 18.4735C77.1218 18.4735 77.2372 18.5359 77.2477 18.7231L77.4051 20.0231C77.4127 20.061 77.412 20.1 77.403 20.1376C77.394 20.1753 77.3771 20.2105 77.3532 20.2411C77.3293 20.2716 77.2991 20.2967 77.2646 20.3148C77.2301 20.3328 77.1922 20.3432 77.1532 20.3455C76.7636 20.4726 76.3565 20.5393 75.9463 20.5431Z" fill="#1D2130"/>
<path d="M83.8909 12.4727C84.4417 12.4511 84.9911 12.5394 85.5067 12.7324C86.0223 12.9253 86.4936 13.219 86.8924 13.5959C87.6346 14.3852 88.0472 15.4239 88.0472 16.5027C88.0472 17.5815 87.6346 18.6202 86.8924 19.4095C86.4955 19.7898 86.0248 20.0863 85.5089 20.2811C84.993 20.476 84.4426 20.5651 83.8909 20.5431C83.105 20.5604 82.3349 20.3231 81.6975 19.8671V23.6215C81.6975 23.8191 81.5926 23.9127 81.3932 23.9127H79.6301C79.5899 23.9202 79.5484 23.9178 79.5093 23.9058C79.4702 23.8938 79.4347 23.8725 79.4057 23.8438C79.3768 23.8152 79.3553 23.7799 79.3432 23.7412C79.3311 23.7024 79.3287 23.6614 79.3362 23.6215V15.0935C79.3486 15.0101 79.3411 14.925 79.3143 14.8449C79.2876 14.7649 79.2423 14.6922 79.1822 14.6326C79.122 14.5729 79.0486 14.5281 78.9679 14.5016C78.8871 14.4751 78.8012 14.4677 78.717 14.4799H78.3707C78.1398 14.4799 78.0244 14.3967 78.0244 14.2303V13.0031C78.019 12.9272 78.0399 12.8517 78.0839 12.7892C78.1278 12.7268 78.192 12.6811 78.2658 12.6599C78.6288 12.5291 79.013 12.4657 79.3992 12.4727C79.7843 12.4389 80.1709 12.5199 80.5093 12.7051C80.8477 12.8904 81.1226 13.1716 81.2987 13.5127C81.6368 13.1738 82.041 12.9068 82.4867 12.728C82.9324 12.5492 83.4102 12.4623 83.8909 12.4727ZM82.2538 18.0575C82.4409 18.2513 82.6657 18.4055 82.9146 18.5109C83.1635 18.6163 83.4314 18.6706 83.702 18.6706C83.9727 18.6706 84.2406 18.6163 84.4895 18.5109C84.7384 18.4055 84.9632 18.2513 85.1503 18.0575C85.5445 17.6218 85.7516 17.051 85.7275 16.4663C85.755 15.8811 85.5474 15.309 85.1503 14.8751C84.9632 14.6813 84.7384 14.5271 84.4895 14.4217C84.2406 14.3163 83.9727 14.262 83.702 14.262C83.4314 14.262 83.1635 14.3163 82.9146 14.4217C82.6657 14.5271 82.4409 14.6813 82.2538 14.8751C81.8719 15.3167 81.6731 15.8853 81.6975 16.4663C81.6763 17.0469 81.8746 17.6144 82.2538 18.0575Z" fill="#1D2130"/>
<path d="M93.0003 20.543C92.0581 20.5814 91.1239 20.3581 90.3031 19.8982C89.9738 19.7016 89.6933 19.4341 89.4826 19.1154C89.2718 18.7968 89.1362 18.4351 89.0857 18.0574C89.0857 17.8494 89.1592 17.7454 89.3901 17.7454H90.9328C91.0062 17.7483 91.0774 17.7711 91.1385 17.8115C91.1996 17.8519 91.2483 17.9082 91.2791 17.9742C91.4995 18.5358 92.0767 18.8166 93.0003 18.8166C93.3224 18.8312 93.6432 18.7669 93.9343 18.6294C94.0348 18.5845 94.121 18.5133 94.1839 18.4236C94.2467 18.3338 94.2838 18.2288 94.2911 18.1198C94.2911 17.8494 94.1232 17.6622 93.7874 17.5374C93.389 17.406 92.9772 17.3188 92.5595 17.2774C92.0646 17.2219 91.5739 17.1351 91.0902 17.0174C90.6199 16.9119 90.1922 16.6692 89.8623 16.3206C89.6681 16.0837 89.5251 15.8097 89.4422 15.5156C89.3594 15.2216 89.3385 14.9138 89.3808 14.6114C89.4232 14.309 89.5278 14.0185 89.6883 13.7579C89.8487 13.4973 90.0616 13.2722 90.3136 13.0966C91.07 12.6191 91.9576 12.3865 92.8533 12.431C93.7206 12.402 94.5787 12.6146 95.3301 13.0446C95.6329 13.2146 95.8937 13.4494 96.0934 13.7318C96.2931 14.0143 96.4267 14.3373 96.4845 14.6774C96.4845 14.8854 96.3901 14.9894 96.2011 14.9894H94.6479C94.5825 14.9933 94.5175 14.9775 94.4613 14.944C94.4051 14.9106 94.3604 14.8612 94.3331 14.8022C94.2293 14.5559 94.0339 14.3586 93.7874 14.251C93.5092 14.1068 93.1986 14.0352 92.8848 14.043C92.5772 14.0264 92.2703 14.0873 91.9928 14.2198C91.895 14.2572 91.8107 14.3228 91.7509 14.408C91.691 14.4933 91.6583 14.5944 91.6569 14.6982C91.6636 14.8404 91.7162 14.9768 91.8068 15.0872C91.8975 15.1977 92.0215 15.2764 92.1607 15.3118C92.5637 15.4623 92.9827 15.567 93.4095 15.6238C93.9004 15.6878 94.3873 15.7781 94.8683 15.8942C95.3387 15.9997 95.7663 16.2424 96.0962 16.591C96.2726 16.7831 96.4089 17.0079 96.4972 17.2524C96.5855 17.497 96.624 17.7564 96.6104 18.0158C96.6195 18.3753 96.5343 18.731 96.3633 19.0482C96.1922 19.3653 95.9411 19.6331 95.6344 19.8254C94.8503 20.3243 93.9315 20.5746 93.0003 20.543Z" fill="#1D2130"/>
<path d="M107.703 20.023C107.709 20.06 107.708 20.0977 107.699 20.134C107.69 20.1703 107.674 20.2045 107.651 20.2346C107.629 20.2646 107.6 20.2899 107.568 20.3089C107.535 20.3279 107.499 20.3404 107.462 20.3454C107.079 20.4694 106.679 20.536 106.276 20.543C105.877 20.584 105.475 20.5222 105.107 20.3637C104.739 20.2052 104.419 19.9553 104.177 19.6382C103.436 20.2698 102.477 20.5939 101.501 20.543C101.048 20.5637 100.595 20.4902 100.172 20.3272C99.7492 20.1643 99.3654 19.9154 99.0453 19.5966C98.7274 19.2626 98.4808 18.8685 98.3203 18.4378C98.1598 18.0072 98.0887 17.5488 98.1113 17.0902V13.0238C98.1113 12.8262 98.2057 12.7222 98.4051 12.7222H100.168C100.368 12.7222 100.462 12.8262 100.462 13.0238V16.7782C100.443 17.246 100.604 17.7034 100.913 18.0574C101.068 18.2196 101.255 18.3472 101.463 18.4315C101.672 18.5158 101.896 18.5549 102.12 18.5462C102.35 18.5562 102.58 18.5209 102.796 18.4424C103.012 18.3638 103.211 18.2436 103.38 18.0886C103.54 17.9253 103.664 17.7312 103.745 17.5184C103.826 17.3055 103.863 17.0784 103.852 16.851V13.0238C103.852 12.8262 103.946 12.7222 104.146 12.7222H105.93C106.129 12.7222 106.224 12.8262 106.224 13.0238V17.9222C106.224 18.3278 106.402 18.5254 106.748 18.5254C106.911 18.5317 107.074 18.5142 107.231 18.4734C107.271 18.4624 107.313 18.4604 107.353 18.4677C107.394 18.4749 107.432 18.4911 107.465 18.5151C107.499 18.5391 107.526 18.5703 107.545 18.6063C107.565 18.6423 107.576 18.6822 107.577 18.723L107.703 20.023Z" fill="#1D2130"/>
<path d="M124.379 20.0231C124.389 20.0603 124.39 20.0992 124.382 20.1368C124.375 20.1744 124.359 20.2099 124.336 20.2407C124.312 20.2716 124.283 20.2969 124.249 20.315C124.215 20.3331 124.177 20.3435 124.138 20.3455C123.748 20.4712 123.341 20.5378 122.931 20.5431C122.307 20.575 121.69 20.3993 121.179 20.0439C120.957 19.8916 120.777 19.6876 120.655 19.45C120.532 19.2123 120.47 18.9484 120.475 18.6815V16.2375C120.498 15.7711 120.34 15.3139 120.035 14.9583C119.887 14.7957 119.706 14.6676 119.502 14.5831C119.299 14.4985 119.079 14.4597 118.859 14.4695C118.661 14.4621 118.463 14.4994 118.281 14.5786C118.1 14.6579 117.938 14.7771 117.81 14.9271C117.533 15.2756 117.391 15.7111 117.411 16.1543V19.9919C117.411 20.1895 117.317 20.2935 117.117 20.2935H115.343C115.302 20.2985 115.26 20.2942 115.221 20.2809C115.182 20.2675 115.146 20.2454 115.117 20.2163C115.088 20.1873 115.065 20.1519 115.052 20.113C115.038 20.0741 115.034 20.0327 115.039 19.9919V16.2375C115.062 15.7762 114.917 15.3222 114.63 14.9583C114.502 14.8054 114.342 14.6824 114.16 14.5979C113.979 14.5134 113.781 14.4696 113.58 14.4695C113.366 14.4609 113.153 14.4973 112.954 14.5761C112.755 14.655 112.575 14.7746 112.426 14.9271C112.126 15.2645 111.971 15.7051 111.996 16.1543V19.9919C112.001 20.0327 111.996 20.0741 111.983 20.113C111.969 20.1519 111.947 20.1873 111.918 20.2163C111.888 20.2454 111.853 20.2675 111.814 20.2809C111.774 20.2942 111.733 20.2985 111.691 20.2935H109.981C109.781 20.2935 109.687 20.1895 109.687 19.9919V15.0935C109.699 15.0101 109.692 14.9249 109.665 14.8449C109.638 14.7649 109.593 14.6922 109.533 14.6325C109.473 14.5729 109.399 14.5281 109.318 14.5016C109.238 14.4751 109.152 14.4676 109.068 14.4799H108.721C108.49 14.4799 108.375 14.3967 108.375 14.2303V13.0031C108.37 12.9271 108.391 12.8517 108.434 12.7892C108.478 12.7267 108.543 12.6811 108.616 12.6599C108.979 12.5291 109.364 12.4657 109.75 12.4727C110.121 12.4414 110.493 12.5146 110.823 12.6839C111.154 12.8532 111.429 13.1117 111.618 13.4295C111.972 13.0969 112.391 12.8403 112.85 12.6757C113.309 12.5111 113.797 12.442 114.284 12.4727C114.756 12.4498 115.228 12.5377 115.66 12.7292C116.092 12.9208 116.473 13.2106 116.771 13.5751C117.118 13.201 117.545 12.9081 118.02 12.7174C118.496 12.5268 119.008 12.4432 119.52 12.4727C119.978 12.4514 120.436 12.5246 120.864 12.6875C121.292 12.8504 121.682 13.0995 122.008 13.4191C122.327 13.7524 122.574 14.1464 122.734 14.5773C122.895 15.0081 122.965 15.4668 122.942 15.9255V17.9327C122.942 18.3279 123.12 18.5255 123.456 18.5255C123.619 18.533 123.781 18.5155 123.939 18.4735C124.156 18.4735 124.271 18.5567 124.285 18.7231L124.379 20.0231Z" fill="#1D2130"/>
<path d="M1.31847 11.3703C2.09273 8.28636 3.88592 5.54777 6.4125 3.5906C8.93908 1.63342 12.0538 0.57019 15.2607 0.57019C18.4676 0.57019 21.5823 1.63342 24.1089 3.5906C26.6355 5.54777 28.4287 8.28636 29.2029 11.3703H27.9436C25.8191 11.3393 23.7382 11.9685 21.9931 13.1695C21.8923 13.2418 21.7872 13.3078 21.6782 13.3671H21.5313C21.4223 13.3078 21.3172 13.2418 21.2164 13.1695C19.4558 11.9963 17.3823 11.3697 15.2607 11.3697C13.1391 11.3697 11.0655 11.9963 9.30494 13.1695C9.20423 13.2418 9.09908 13.3078 8.9901 13.3671H8.84318C8.7342 13.3078 8.62905 13.2418 8.52834 13.1695C6.78321 11.9685 4.7023 11.3393 2.57783 11.3703H1.31847ZM25.6767 17.8911C26.3232 17.3922 27.1244 17.1312 27.9436 17.1527H29.6332V13.8143H27.9436C26.5008 13.797 25.091 14.242 23.9241 15.0831C23.2674 15.5628 22.473 15.8217 21.6572 15.8217C20.8414 15.8217 20.047 15.5628 19.3904 15.0831C18.1939 14.2577 16.771 13.8153 15.3132 13.8153C13.8553 13.8153 12.4325 14.2577 11.236 15.0831C10.5793 15.5628 9.78493 15.8217 8.96911 15.8217C8.1533 15.8217 7.35891 15.5628 6.70226 15.0831C5.52097 14.2313 4.09096 13.7857 2.63031 13.8143H0.888184V17.1527H2.57783C3.39695 17.1312 4.1982 17.3922 4.84469 17.8911C6.039 18.717 7.46028 19.1599 8.91664 19.1599C10.373 19.1599 11.7943 18.717 12.9886 17.8911C13.6359 17.3937 14.4366 17.1329 15.2554 17.1527C16.0748 17.1294 16.8767 17.3906 17.5223 17.8911C18.7188 18.7165 20.1417 19.1589 21.5995 19.1589C23.0573 19.1589 24.4802 18.7165 25.6767 17.8911ZM25.6767 23.8607C26.3232 23.3618 27.1244 23.1008 27.9436 23.1223H29.6332V19.7839H27.9436C26.5008 19.7666 25.091 20.2116 23.9241 21.0527C23.2674 21.5325 22.473 21.7913 21.6572 21.7913C20.8414 21.7913 20.047 21.5325 19.3904 21.0527C18.1939 20.2273 16.771 19.7849 15.3132 19.7849C13.8553 19.7849 12.4325 20.2273 11.236 21.0527C10.5793 21.5325 9.78493 21.7913 8.96911 21.7913C8.1533 21.7913 7.35891 21.5325 6.70226 21.0527C5.52097 20.2009 4.09096 19.7553 2.63031 19.7839H0.888184V23.1223H2.57783C3.39695 23.1008 4.1982 23.3618 4.84469 23.8607C6.039 24.6866 7.46028 25.1295 8.91664 25.1295C10.373 25.1295 11.7943 24.6866 12.9886 23.8607C13.6359 23.3633 14.4366 23.1025 15.2554 23.1223C16.0748 23.099 16.8767 23.3602 17.5223 23.8607C18.7188 24.6861 20.1417 25.1285 21.5995 25.1285C23.0573 25.1285 24.4802 24.6861 25.6767 23.8607Z" fill="#1D2130"/>
</g>
</svg>
