<svg width="37" height="37" viewBox="0 0 37 37" fill="none" xmlns="http://www.w3.org/2000/svg">
<path d="M20.0695 6.29714L21.4627 4.90384C24.1988 2.16776 28.6532 2.10004 31.405 4.82035C32.4477 5.85342 33.1407 7.18717 33.3865 8.63425C33.6323 10.0813 33.4186 11.5691 32.7754 12.8885C32.4669 13.5187 32.363 14.2296 32.478 14.9218C32.5932 15.614 32.9216 16.253 33.4175 16.7495C34.3294 15.8355 35.0521 14.7508 35.5446 13.5574C36.0371 12.3639 36.2897 11.0852 36.2879 9.79412C36.286 8.50309 36.0299 7.22504 35.534 6.03302C35.0381 4.84099 34.3122 3.75835 33.3978 2.84694C29.5499 -0.97929 23.3039 -0.903149 19.4668 2.93384L6.18628 16.214L5.0945 15.1222C2.31202 12.3397 2.29429 7.79148 5.12585 5.05845C6.17397 4.04992 7.50929 3.39156 8.94752 3.17425C10.3858 2.95693 11.856 3.19137 13.1553 3.8452C13.7483 4.14911 14.4222 4.25782 15.0808 4.15582C15.7393 4.05383 16.3487 3.74634 16.8221 3.27728L16.8559 3.2436C16.8665 3.23313 16.8748 3.22068 16.8805 3.20696C16.8862 3.19325 16.8892 3.17854 16.8892 3.16369C16.8892 3.14884 16.8862 3.13413 16.8805 3.12043C16.8748 3.10672 16.8665 3.09427 16.8559 3.08379C15.028 1.30184 12.5786 0.300917 10.0259 0.292824C7.47314 0.284733 5.01737 1.2701 3.17824 3.04043C-0.783441 6.86488 -0.769285 13.2246 3.1245 17.1183L16.401 30.3949L14.9907 31.8052C12.2547 34.5413 7.80012 34.609 5.04846 31.8887C4.00575 30.8557 3.31283 29.5219 3.06701 28.0748C2.8212 26.6278 3.03483 25.1401 3.67791 23.8206C3.98644 23.1903 4.09042 22.4794 3.97535 21.7873C3.86026 21.0951 3.53184 20.456 3.03599 19.9596C2.12414 20.8736 1.40131 21.9583 0.908789 23.1516C0.416266 24.3452 0.163707 25.6238 0.165537 26.915C0.167367 28.206 0.42355 29.4841 0.919456 30.676C1.41536 31.8681 2.14127 32.9507 3.0557 33.8621C6.90344 37.6885 13.1495 37.6126 16.9867 33.7754L30.2844 20.4775L31.3803 21.5734C34.1164 24.3095 34.1841 28.7639 31.4638 31.5155C30.4308 32.5584 29.097 33.2512 27.6499 33.4972C26.2029 33.743 24.7152 33.5292 23.3957 32.8861C22.7652 32.5774 22.054 32.4733 21.3615 32.5887C20.6691 32.7039 20.0299 33.0326 19.5334 33.5289C20.4475 34.4408 21.5321 35.1637 22.7254 35.6562C23.919 36.1487 25.1976 36.4013 26.4888 36.3995C27.7798 36.3975 29.0579 36.1413 30.2498 35.6454C31.4419 35.1495 32.5246 34.4236 33.4359 33.5092C37.2624 29.6614 37.1862 23.4153 33.3492 19.5783L20.0695 6.29714ZM18.3836 28.4115L8.16936 18.1972L18.0862 8.28057L28.3004 18.4948L18.3836 28.4115Z" fill="black"/>
</svg>
