<svg width="138" height="32" viewBox="0 0 138 32" fill="none" xmlns="http://www.w3.org/2000/svg">
<g opacity="0.6">
<path d="M33.6768 7.63477H36.8421V22.9518H33.6768V7.63477Z" fill="#1D2130"/>
<path d="M38.6147 17.7048C38.6147 16.6027 38.9404 15.5256 39.5505 14.6097C40.1606 13.6939 41.0276 12.9806 42.0416 12.5604C43.0556 12.1401 44.171 12.0318 45.2464 12.2491C46.3218 12.4664 47.3087 12.9996 48.0822 13.7811C48.8556 14.5625 49.3806 15.5571 49.5908 16.6387C49.8009 17.7203 49.6867 18.8402 49.2626 19.8565C48.8385 20.8728 48.1236 21.7397 47.2085 22.3474C46.2934 22.955 45.2193 23.2761 44.1224 23.2698C43.3948 23.2755 42.6735 23.1352 42.0006 22.8571C41.3278 22.5791 40.7169 22.1689 40.2039 21.6506C39.6909 21.1322 39.2861 20.5162 39.0132 19.8387C38.7403 19.1611 38.6048 18.4356 38.6147 17.7048ZM46.5491 17.7048C46.5367 17.2297 46.3851 16.7688 46.1133 16.3798C45.8415 15.9908 45.4616 15.691 45.0211 15.5178C44.5805 15.3446 44.099 15.3057 43.6366 15.406C43.1742 15.5063 42.7514 15.7414 42.4213 16.0817C42.0912 16.4221 41.8683 16.8528 41.7805 17.3198C41.6927 17.7868 41.7438 18.2694 41.9276 18.7073C42.1114 19.1452 42.4197 19.519 42.8138 19.7818C43.2079 20.0447 43.6704 20.185 44.1435 20.1852C44.4656 20.1915 44.7855 20.131 45.0832 20.0074C45.381 19.8839 45.6502 19.7 45.874 19.4672C46.0978 19.2344 46.2714 18.9577 46.3839 18.6545C46.4964 18.3512 46.5455 18.0279 46.528 17.7048H46.5491Z" fill="#1D2130"/>
<path d="M62.1543 12.4578V22.4324C62.1543 25.9516 59.411 27.4462 56.6361 27.4462C55.6573 27.5269 54.6755 27.3315 53.8012 26.882C52.927 26.4326 52.195 25.7469 51.6876 24.9022L54.357 23.3546C54.5733 23.7927 54.9174 24.1542 55.3434 24.3909C55.7695 24.6277 56.2572 24.7283 56.7416 24.6796C57.0502 24.7178 57.3633 24.687 57.6587 24.5894C57.9541 24.4918 58.2243 24.3299 58.4502 24.1152C58.676 23.9005 58.8518 23.6383 58.965 23.3474C59.0782 23.0565 59.126 22.744 59.105 22.4324V21.4678C58.7367 21.9164 58.2693 22.2727 57.74 22.5082C57.2107 22.7437 56.634 22.852 56.0558 22.8246C54.6566 22.8246 53.3147 22.2662 52.3254 21.2722C51.336 20.2783 50.7802 18.9302 50.7802 17.5246C50.7802 16.1189 51.336 14.7708 52.3254 13.7769C53.3147 12.783 54.6566 12.2246 56.0558 12.2246C56.634 12.1971 57.2107 12.3054 57.74 12.5409C58.2693 12.7765 58.7367 13.1327 59.105 13.5814V12.5214L62.1543 12.4578ZM59.105 17.4928C59.1261 16.9856 58.9956 16.4838 58.7305 16.0517C58.4654 15.6196 58.0776 15.2771 57.6172 15.0682C57.1567 14.8593 56.6446 14.7936 56.1466 14.8794C55.6486 14.9653 55.1876 15.1988 54.8229 15.55C54.4581 15.9012 54.2062 16.354 54.0997 16.8502C53.9931 17.3463 54.0367 17.8632 54.2249 18.3342C54.413 18.8053 54.7371 19.209 55.1556 19.4935C55.574 19.7781 56.0675 19.9303 56.5728 19.9308C56.9024 19.9546 57.2334 19.9087 57.5444 19.7961C57.8553 19.6835 58.1392 19.5065 58.3779 19.2768C58.6165 19.047 58.8045 18.7695 58.9298 18.4622C59.055 18.1549 59.1147 17.8247 59.105 17.4928Z" fill="#1D2130"/>
<path d="M63.9374 17.7048C63.9374 16.6036 64.2626 15.5273 64.8717 14.6119C65.4808 13.6965 66.3466 12.9832 67.3594 12.5624C68.3722 12.1415 69.4865 12.0319 70.5613 12.2475C71.6361 12.4631 72.6231 12.9941 73.3974 13.7735C74.1717 14.5528 74.6984 15.5454 74.9109 16.6256C75.1235 17.7058 75.0123 18.8251 74.5914 19.8417C74.1705 20.8584 73.4589 21.7268 72.5466 22.337C71.6342 22.9473 70.5622 23.2719 69.4662 23.2698C68.7373 23.2769 68.0143 23.1377 67.3396 22.8604C66.665 22.5831 66.0522 22.1733 65.5372 21.655C65.0223 21.1367 64.6155 20.5203 64.3408 19.8419C64.0661 19.1636 63.929 18.437 63.9374 17.7048ZM71.8719 17.7048C71.8594 17.2292 71.7075 16.7679 71.4353 16.3787C71.163 15.9895 70.7825 15.6897 70.3413 15.5168C69.9002 15.3439 69.4181 15.3057 68.9554 15.4069C68.4927 15.508 68.0701 15.7441 67.7404 16.0856C67.4107 16.427 67.1886 16.8586 67.102 17.3263C67.0154 17.794 67.0681 18.2769 67.2535 18.7147C67.4389 19.1524 67.7487 19.5254 68.1442 19.787C68.5397 20.0486 69.0033 20.1871 69.4768 20.1852C69.7988 20.1915 70.1188 20.131 70.4165 20.0074C70.7143 19.8839 70.9835 19.7 71.2073 19.4672C71.4311 19.2344 71.6046 18.9577 71.7172 18.6545C71.8297 18.3512 71.8788 18.0279 71.8613 17.7048H71.8719Z" fill="#1D2130"/>
<path d="M76.4617 9.64871C76.4617 9.27554 76.5718 8.91074 76.7782 8.60046C76.9846 8.29018 77.2779 8.04834 77.6211 7.90553C77.9642 7.76273 78.3419 7.72536 78.7062 7.79816C79.0705 7.87097 79.4051 8.05067 79.6678 8.31454C79.9305 8.57842 80.1093 8.91461 80.1818 9.28061C80.2542 9.64662 80.2171 10.026 80.0749 10.3708C79.9328 10.7155 79.692 11.0102 79.3832 11.2175C79.0743 11.4249 78.7112 11.5355 78.3398 11.5355C77.8434 11.53 77.3688 11.3294 77.0178 10.9768C76.6668 10.6241 76.4672 10.1474 76.4617 9.64871ZM76.7677 12.4577H79.933V22.9517H76.7677V12.4577Z" fill="#1D2130"/>
<path d="M93.4806 17.7048C93.5161 18.4027 93.4138 19.1008 93.1797 19.7588C92.9456 20.4169 92.5843 21.0219 92.1165 21.5391C91.6488 22.0564 91.0838 22.4755 90.4541 22.7726C89.8245 23.0696 89.1426 23.2386 88.4477 23.2698C87.858 23.3092 87.2671 23.2143 86.719 22.9922C86.1709 22.7702 85.6798 22.4266 85.2824 21.9872V27.1706H82.117V12.4578H85.2824V13.4436C85.6803 13.0055 86.1718 12.6635 86.72 12.4432C87.2681 12.2229 87.8588 12.1301 88.4477 12.1716C89.1398 12.2029 89.819 12.3709 90.4465 12.6659C91.074 12.9609 91.6375 13.3772 92.1049 13.891C92.5722 14.4048 92.9342 15.0061 93.1703 15.6604C93.4063 16.3148 93.5118 17.0095 93.4806 17.7048ZM90.3153 17.7048C90.3028 17.2125 90.146 16.7348 89.8644 16.3317C89.5829 15.9285 89.1891 15.6178 88.7326 15.4385C88.276 15.2592 87.7769 15.2193 87.2979 15.3237C86.8188 15.4282 86.3811 15.6724 86.0396 16.0257C85.6981 16.379 85.468 16.8257 85.3781 17.3098C85.2883 17.7939 85.3426 18.294 85.5344 18.7472C85.7262 19.2004 86.0469 19.5867 86.4563 19.8575C86.8657 20.1284 87.3455 20.2719 87.8357 20.27C88.1715 20.2843 88.5065 20.2272 88.8187 20.1023C89.131 19.9774 89.4134 19.7877 89.6475 19.5455C89.8817 19.3032 90.0622 19.014 90.1773 18.6968C90.2923 18.3796 90.3394 18.0415 90.3153 17.7048Z" fill="#1D2130"/>
<path d="M103.114 19.8035C103.114 22.2203 101.004 23.2485 98.7667 23.2485C97.8544 23.331 96.9384 23.1368 96.1371 22.6908C95.3359 22.2449 94.6861 21.5677 94.2719 20.7469L96.9941 19.1993C97.102 19.5776 97.3358 19.9071 97.6566 20.1329C97.9773 20.3586 98.3655 20.4669 98.7562 20.4395C99.5053 20.4395 99.8851 20.2063 99.8851 19.7823C99.8851 18.6269 94.7467 19.2417 94.7467 15.6059C94.7467 13.3163 96.667 12.1715 98.8406 12.1715C99.6668 12.1344 100.488 12.3227 101.216 12.7165C101.944 13.1103 102.553 13.6949 102.977 14.4081L100.254 15.8497C100.134 15.5763 99.9377 15.3437 99.6886 15.18C99.4396 15.0164 99.1487 14.9287 98.8511 14.9275C98.3025 14.9275 97.9754 15.1395 97.9754 15.5105C97.9754 16.7189 103.114 15.9239 103.114 19.8035Z" fill="#1D2130"/>
<path d="M114.583 12.4578V22.9518H111.417V21.966C111.058 22.4024 110.601 22.7477 110.084 22.9742C109.568 23.2006 109.005 23.3019 108.442 23.2698C106.332 23.2698 104.528 21.754 104.528 18.9238V12.4578H107.693V18.4468C107.668 18.6972 107.698 18.95 107.779 19.1878C107.861 19.4256 107.994 19.6427 108.167 19.8241C108.341 20.0056 108.551 20.147 108.785 20.2386C109.018 20.3302 109.268 20.3699 109.518 20.3548C110.658 20.3548 111.46 19.6764 111.46 18.2348V12.4578H114.583Z" fill="#1D2130"/>
<path d="M132.52 16.5069V22.9517H129.354V16.7825C129.354 15.7225 128.859 15.0653 127.856 15.0653C126.854 15.0653 126.221 15.7967 126.221 17.0369V22.9517H123.055V16.7825C123.055 15.7225 122.559 15.0653 121.557 15.0653C120.555 15.0653 119.922 15.7967 119.922 17.0369V22.9517H116.756V12.4577H119.922V13.4223C120.249 12.9962 120.678 12.6587 121.168 12.4403C121.657 12.222 122.194 12.1296 122.728 12.1715C123.264 12.1435 123.797 12.2558 124.276 12.4974C124.755 12.7389 125.164 13.1015 125.461 13.5495C125.809 13.0815 126.269 12.7096 126.798 12.4686C127.328 12.2276 127.91 12.1254 128.489 12.1715C130.958 12.1715 132.52 13.8887 132.52 16.5069Z" fill="#1D2130"/>
<path d="M14.8219 4.87878V0.373779H0.68335V31.3258H14.8219V26.8208C11.9256 26.8208 9.14794 25.6649 7.09997 23.6074C5.05199 21.55 3.90145 18.7595 3.90145 15.8498C3.90145 12.9401 5.05199 10.1496 7.09997 8.09211C9.14794 6.03465 11.9256 4.87878 14.8219 4.87878Z" fill="#1D2130"/>
<path d="M14.8219 4.87878V26.8208C17.7182 26.8208 20.4957 25.6649 22.5437 23.6074C24.5917 21.55 25.7422 18.7595 25.7422 15.8498C25.7422 12.9401 24.5917 10.1496 22.5437 8.09211C20.4957 6.03465 17.7182 4.87878 14.8219 4.87878Z" fill="#1D2130"/>
<path d="M135.179 12.3942C136.461 12.3942 137.5 11.3501 137.5 10.0622C137.5 8.77422 136.461 7.73015 135.179 7.73015C133.897 7.73015 132.857 8.77422 132.857 10.0622C132.857 11.3501 133.897 12.3942 135.179 12.3942Z" fill="#1D2130"/>
</g>
</svg>
